<?xml version="1.0" encoding="iso-8859-1"?>
<!-- Uploaded to: SVG Repo, www.svgrepo.com, Generator: SVG Repo Mixer Tools -->
<svg height="800px" width="800px" version="1.1" id="Layer_1" xmlns="http://www.w3.org/2000/svg" xmlns:xlink="http://www.w3.org/1999/xlink" 
	 viewBox="0 0 512 512" xml:space="preserve">
<polygon style="fill:#FF9302;" points="344.448,164.813 175.077,164.813 151.547,298.439 315.913,257.068 "/>
<polygon style="fill:#FFBE00;" points="5.706,164.813 40.016,265.905 116.157,307.347 175.077,292.517 175.077,164.813 "/>
<polygon style="fill:#FD7201;" points="294.989,380.708 315.913,380.708 315.913,257.068 236.977,276.936 "/>
<path style="fill:#B3B3B3;" d="M58.967,262.775l-23.439,63.388l23.439,54.545c32.567,0,58.967-26.4,58.967-58.967
	S91.534,262.775,58.967,262.775z"/>
<path style="fill:#D8D8D8;" d="M0,321.742c0,32.567,26.4,58.967,58.967,58.967V262.775C26.4,262.775,0,289.175,0,321.742z"/>
<polygon style="fill:#898989;" points="58.57,338.005 50.919,307.605 374.451,226.171 403.797,131.291 512,131.291 512,162.639 
	426.914,162.639 399.192,252.27 "/>
</svg>