<?xml version="1.0" encoding="iso-8859-1"?>
<!-- Uploaded to: SVG Repo, www.svgrepo.com, Generator: SVG Repo Mixer Tools -->
<svg version="1.1" id="Layer_1" xmlns="http://www.w3.org/2000/svg" xmlns:xlink="http://www.w3.org/1999/xlink" 
	 viewBox="0 0 512 512" xml:space="preserve">
<g>
	<rect x="175.92" y="7.491" style="fill:#BF9484;" width="24.024" height="32.376"/>
	<rect x="304.053" y="7.491" style="fill:#BF9484;" width="24.024" height="32.376"/>
</g>
<rect x="199.944" y="7.834" style="fill:#F1506E;" width="104.108" height="32.033"/>
<path style="fill:#FBB03B;" d="M416.165,248.081h-84.792c-10.668,0-19.315,8.648-19.315,19.315v28.734
	c0,8.846-7.171,16.017-16.017,16.017l0,0c-8.846,0-16.017,7.171-16.017,16.017v20.021c0,11.057-8.963,20.021-20.021,20.021l0,0
	c-11.057,0-20.021-8.963-20.021-20.021v-80.082c0-11.057-8.963-20.021-20.021-20.021l0,0c-11.057,0-20.021,8.963-20.021,20.021
	v8.008c0,11.057-8.963,20.021-20.021,20.021l0,0c-11.057,0-20.021-8.963-20.021-20.021v-8.713c0-10.668-8.648-19.315-19.315-19.315
	H95.835v-24.025h320.33v24.024H416.165z"/>
<rect x="119.86" y="424.268" style="fill:#FFFFFF;" width="104.108" height="48.048"/>
<path style="fill:#514A51;" d="M408.157,272.107H392.14v176.181H223.967v-24.024H119.86V272.107h-16.017v-24.025h35.276
	c11.477,0,20.781,9.305,20.781,20.781v7.247c0,11.057,8.963,20.021,20.021,20.021l0,0c11.057,0,20.021-8.963,20.021-20.021v-8.008
	c0-11.057,8.963-20.021,20.021-20.021l0,0c11.057,0,20.021,8.963,20.021,20.021v80.082c0,11.057,8.963,20.021,20.021,20.021l0,0
	c11.057,0,20.021-8.963,20.021-20.021v-20.021c0-8.846,7.171-16.017,16.017-16.017l0,0c8.845,0,16.017-7.171,16.017-16.017v-27.966
	c0-11.092,8.991-20.083,20.084-20.083h76.015v24.027H408.157z"/>
<polygon style="fill:#F1506E;" points="223.62,448.284 223.62,472.308 120.211,472.308 120.211,504.688 391.789,504.688 
	391.789,448.284 "/>
<rect x="79.478" y="216.396" width="353.052" height="15.668"/>
<path d="M260.004,376.039c-15.359,0-27.855-12.496-27.855-27.854v-80.082c0-6.719-5.467-12.187-12.187-12.187
	c-6.721,0-12.187,5.467-12.187,12.187v8.008c0,15.359-12.496,27.855-27.855,27.855s-27.855-12.496-27.855-27.855v-8.713
	c0-6.331-5.151-11.481-11.481-11.481h-44.75v-15.668h44.751c14.97,0,27.149,12.179,27.149,27.149v8.713
	c0,6.719,5.467,12.187,12.187,12.187c6.719,0,12.187-5.467,12.187-12.187v-8.008c0-15.359,12.496-27.855,27.855-27.855
	c15.36,0,27.856,12.496,27.856,27.855v80.082c0,6.719,5.467,12.187,12.187,12.187c6.719,0,12.187-5.467,12.187-12.187v-20.021
	c0-13.151,10.699-23.85,23.85-23.85c4.512,0,8.183-3.67,8.183-8.183v-28.734c0-14.97,12.179-27.149,27.149-27.149h84.792v15.668
	h-84.792c-6.331,0-11.482,5.151-11.482,11.482v28.734c0,13.152-10.699,23.851-23.851,23.851c-4.511,0-8.182,3.671-8.182,8.182
	v20.021C287.858,363.543,275.364,376.039,260.004,376.039z"/>
<g>
	<rect x="424.174" y="240.42" style="fill:#BF9484;" width="15.668" height="15.668"/>
	<rect x="72.167" y="240.42" style="fill:#BF9484;" width="15.668" height="15.668"/>
</g>
<path d="M63.802,255.915H39.951v-104.1c0-74.88,60.919-135.8,135.8-135.8v15.668c-66.241,0-120.132,53.891-120.132,120.132v88.432
	h8.183C63.802,240.247,63.802,255.915,63.802,255.915z"/>
<path d="M472.049,255.915h-23.851v-15.668h8.183v-88.432c0-66.241-53.891-120.132-120.132-120.132V16.016
	c74.88,0,135.8,60.919,135.8,135.8V255.915z"/>
<path d="M311.883,47.701H192.108V0h119.775V47.701z M207.776,32.033h88.439V15.668h-88.439V32.033z"/>
<rect x="168.264" y="7.491" width="15.668" height="32.38"/>
<rect x="320.765" y="7.491" width="15.668" height="32.38"/>
<path d="M384.477,264.446v176.526H264.356v15.668h120.121v39.692H127.523v-15.668h104.453V456.64h15.668v-15.668h-15.668v-24.024
	H127.523V264.446h-24.024v15.668h8.356V512h288.291V280.114h8.356v-15.668H384.477z M216.308,432.616v32.38h-88.785v-8.356h64.761
	v-15.668h-64.761v-8.356H216.308z"/>
</svg>